# xmcd CD database file
#
# Track frame offsets:
#	150
#	21741
#	41647
#	58293
#	81408
#	100409
#	129063
#	149132
#	178871
#	190403
#	213015
#	226681
#	265579
#	286780
#
# Disc length: 4107 seconds
#
# Revision: 0
# Processed by: cddbd v1.5.2PL0 Copyright (c) Steve Scherf et al.
# Submitted via: CDex 1.51
#
DISCID=cf10090e
DTITLE=B.B. King and Eric Clapton - Riding With The King
DYEAR=2000
DGENRE=Blues
TTITLE0=I Wanna Be
TTITLE1=Riding With The King
TTITLE2=Key To The Highway
TTITLE3=Help The Poor
TTITLE4=Come Rain Or Shine
TTITLE5=Hold On I'm Coming
TTITLE6=Worried Life
TTITLE7=Rock Mr Baby
TTITLE8=Rock Me Life
TTITLE9=Marry You
TTITLE10=Days Of Old
TTITLE11=Three O'Clock Blues
TTITLE12=Ten Long Years
TTITLE13=The Thrill Is Gone (live)
EXTD=YEAR: 2000
EXTT0=
EXTT1=
EXTT2=
EXTT3=
EXTT4=
EXTT5=
EXTT6=
EXTT7=
EXTT8=
EXTT9=
EXTT10=
EXTT11=
EXTT12=
EXTT13=
PLAYORDER=
